<svg xmlns="http://www.w3.org/2000/svg" width="27.78" height="27.78" viewBox="0 0 27.78 27.78">
  <path id="Icon_awesome-coins" data-name="Icon awesome-coins" d="M0,21.991v2.317c0,1.915,4.666,3.473,10.418,3.473s10.418-1.557,10.418-3.473V21.991c-2.241,1.579-6.337,2.317-10.418,2.317S2.241,23.57,0,21.991ZM17.363,6.945c5.751,0,10.418-1.557,10.418-3.473S23.114,0,17.363,0,6.945,1.557,6.945,3.473,11.611,6.945,17.363,6.945ZM0,16.3v2.8c0,1.915,4.666,3.473,10.418,3.473S20.835,21.014,20.835,19.1V16.3c-2.241,1.845-6.343,2.8-10.418,2.8S2.241,18.144,0,16.3Zm22.571.6c3.109-.6,5.209-1.72,5.209-3.006V11.573a13.324,13.324,0,0,1-5.209,1.872ZM10.418,8.681C4.666,8.681,0,10.624,0,13.022s4.666,4.341,10.418,4.341,10.418-1.942,10.418-4.341S16.169,8.681,10.418,8.681Zm11.9,3.055C25.572,11.15,27.78,10,27.78,8.681V6.365c-1.926,1.362-5.236,2.094-8.719,2.268A6.076,6.076,0,0,1,22.316,11.736Z" fill="#ee7013"/>
</svg>
